<svg xmlns="http://www.w3.org/2000/svg" xmlns:xlink="http://www.w3.org/1999/xlink" width="24" height="24" viewBox="0 0 24 24"><defs><clipPath id="right"><rect width="24" height="24" transform="translate(-11043 7593)" fill="#fff"/></clipPath></defs><g transform="translate(11043 -7593)" clip-path="url(#right)"><path d="M9.5,16.5a7,7,0,1,0-7-7A7.006,7.006,0,0,0,9.5,16.5ZM7.083,9.028l2.712-2.7a.676.676,0,0,1,.943,0,.667.667,0,0,1,0,.928L8.483,9.5l2.24,2.24a.656.656,0,0,1-.928.928l-2.712-2.7A.682.682,0,0,1,6.892,9.5.71.71,0,0,1,7.083,9.028Z" transform="translate(-11021 7614.5) rotate(180)" fill="#b7b2ae"/></g></svg>